<svg xmlns="http://www.w3.org/2000/svg" width="750" viewBox="0 0 750 375" height="375" version="1.0"><defs><clipPath id="a"><path d="M 334 51.019531 L 415 51.019531 L 415 121 L 334 121 Z M 334 51.019531"/></clipPath><clipPath id="b"><path d="M 271 112 L 479 112 L 479 297.296875 L 271 297.296875 Z M 271 112"/></clipPath><clipPath id="c"><path d="M 114 28.871094 L 636 28.871094 L 636 345.515625 L 114 345.515625 Z M 114 28.871094"/></clipPath></defs><path fill="#FFF" d="M-75 -37.5H825V412.5H-75z"/><path fill="#FFF" d="M-75 -37.5H825V412.5H-75z"/><path fill="#4E1A3D" d="M-75 -37.5H825V412.5H-75z"/><path fill="#FF2768" d="M 260.691406 285.769531 C 260.882812 285.769531 261.074219 285.769531 261.457031 285.769531 C 263.183594 285.769531 264.910156 284.425781 265.292969 282.699219 L 272.960938 241.972656 L 295.582031 232.558594 C 294.429688 230.253906 293.472656 227.949219 292.511719 225.449219 L 267.976562 235.632812 C 266.824219 236.207031 265.867188 237.167969 265.675781 238.511719 L 257.625 281.160156 C 257.242188 283.273438 258.582031 285.386719 260.691406 285.769531 Z M 260.691406 285.769531"/><path fill="#FF2768" d="M 271.617188 156.675781 C 272 158.023438 272.960938 158.980469 274.300781 159.367188 L 291.554688 164.359375 C 292.320312 161.863281 293.472656 159.558594 294.429688 157.253906 L 278.519531 152.644531 L 268.933594 119.601562 C 268.359375 117.488281 266.25 116.335938 264.140625 116.910156 C 262.035156 117.488281 260.882812 119.601562 261.457031 121.714844 Z M 271.617188 156.675781"/><g clip-path="url(#a)"><path fill="#FF2768" d="M 337.371094 59.089844 C 337.5625 59.089844 361.332031 64.660156 367.847656 82.910156 C 351.9375 85.984375 340.054688 100.007812 340.054688 116.71875 C 340.054688 118.0625 340.628906 119.214844 341.777344 119.984375 C 342.355469 120.371094 343.121094 120.5625 343.886719 120.5625 L 405.230469 120.5625 C 405.996094 120.5625 406.761719 120.371094 407.339844 119.984375 C 408.296875 119.214844 409.0625 118.0625 409.0625 116.71875 C 409.0625 100.007812 397.179688 85.984375 381.269531 82.910156 C 387.785156 64.660156 411.363281 59.089844 411.746094 59.089844 C 413.855469 58.703125 415.199219 56.589844 414.621094 54.476562 C 414.238281 52.363281 412.132812 51.019531 410.023438 51.597656 C 409.0625 51.789062 382.800781 57.742188 374.558594 79.066406 C 366.316406 57.742188 340.246094 51.789062 338.902344 51.402344 C 336.792969 51.019531 334.878906 52.171875 334.300781 54.285156 C 333.917969 56.398438 335.261719 58.511719 337.371094 59.089844 Z M 388.742188 93.859375 C 387.210938 94.433594 386.058594 95.78125 386.058594 97.507812 C 386.058594 99.621094 387.785156 101.351562 389.894531 101.351562 C 390.660156 101.351562 391.234375 101.160156 391.8125 100.773438 C 392.769531 100.199219 393.535156 99.046875 393.726562 97.894531 C 397.5625 101.925781 400.246094 107.113281 401.203125 112.878906 L 347.914062 112.878906 C 348.679688 107.113281 351.363281 101.925781 355.390625 97.894531 C 355.582031 99.046875 356.15625 100.199219 357.304688 100.773438 C 357.882812 101.160156 358.457031 101.351562 359.222656 101.351562 C 361.332031 101.351562 363.058594 99.621094 363.058594 97.507812 C 363.058594 95.78125 361.90625 94.433594 360.375 93.859375 C 364.398438 91.363281 369.382812 89.824219 374.558594 89.824219 C 379.734375 89.824219 384.527344 91.363281 388.742188 93.859375 Z M 388.742188 93.859375"/></g><path fill="#FF2768" d="M 458.136719 165.320312 L 478.839844 159.367188 C 480.183594 158.980469 481.140625 158.023438 481.523438 156.675781 L 491.492188 121.523438 C 492.066406 119.410156 490.917969 117.296875 488.808594 116.71875 C 486.699219 116.144531 484.589844 117.296875 484.015625 119.410156 L 474.625 152.449219 L 455.261719 158.023438 C 456.414062 160.519531 457.371094 163.015625 458.136719 165.320312 Z M 458.136719 165.320312"/><path fill="#FF2768" d="M 483.441406 236.59375 C 483.25 235.246094 482.292969 234.289062 481.140625 233.710938 L 457.371094 223.722656 C 456.414062 226.21875 455.453125 228.523438 454.496094 230.828125 L 476.347656 239.859375 L 484.015625 280.585938 C 484.398438 282.503906 485.933594 283.65625 487.851562 283.65625 C 488.042969 283.65625 488.234375 283.65625 488.617188 283.65625 C 490.726562 283.273438 492.066406 281.160156 491.683594 279.238281 Z M 483.441406 236.59375"/><g clip-path="url(#b)"><path fill="#FF2768" d="M 306.699219 150.144531 C 301.714844 158.023438 297.878906 166.859375 295.964844 176.273438 L 281.394531 176.273438 C 275.644531 176.273438 271.234375 181.457031 271.234375 187.796875 L 271.234375 199.324219 C 271.234375 205.664062 275.835938 210.851562 281.394531 210.851562 L 295.964844 210.851562 C 298.074219 220.261719 301.714844 229.101562 306.890625 236.976562 L 296.539062 247.351562 C 292.511719 251.382812 292.898438 258.300781 297.496094 262.71875 L 305.546875 270.789062 C 308.039062 273.285156 311.109375 274.4375 314.175781 274.4375 C 316.667969 274.4375 319.160156 273.476562 321.074219 271.746094 L 331.425781 261.375 C 339.285156 266.367188 348.105469 270.210938 357.496094 272.324219 L 357.496094 287.117188 C 357.496094 292.6875 362.671875 297.296875 369 297.296875 L 380.5 297.296875 C 386.828125 297.296875 392.003906 292.6875 392.003906 287.117188 L 392.003906 272.324219 C 401.394531 270.210938 410.214844 266.5625 418.074219 261.375 L 428.425781 271.746094 C 430.34375 273.667969 432.640625 274.4375 435.324219 274.4375 C 438.203125 274.4375 441.460938 273.285156 443.761719 270.789062 L 451.8125 262.71875 C 456.222656 258.109375 456.605469 251.382812 452.769531 247.351562 L 442.417969 236.976562 C 447.402344 229.101562 451.238281 220.261719 453.34375 210.851562 L 467.914062 210.851562 C 473.472656 210.851562 478.074219 205.664062 478.074219 199.324219 L 478.074219 187.796875 C 478.074219 181.457031 473.472656 176.273438 467.914062 176.273438 L 453.152344 176.273438 C 451.046875 166.859375 447.402344 158.023438 442.226562 150.144531 L 452.578125 139.773438 C 456.605469 135.738281 456.222656 128.820312 451.621094 124.402344 L 443.570312 116.335938 C 441.078125 113.835938 438.011719 112.683594 434.941406 112.683594 C 432.449219 112.683594 429.957031 113.644531 428.042969 115.375 L 417.691406 125.75 C 414.046875 129.207031 410.214844 132.28125 405.039062 132.28125 L 343.695312 132.28125 C 338.136719 132.28125 334.878906 129.589844 331.042969 125.75 L 320.882812 115.183594 C 318.96875 113.261719 316.667969 112.492188 313.984375 112.492188 C 311.109375 112.492188 307.847656 113.644531 305.355469 116.144531 L 297.304688 124.210938 C 292.703125 128.628906 292.320312 135.546875 296.347656 139.578125 Z M 374.558594 155.140625 C 389.894531 155.140625 402.355469 167.242188 402.355469 182.035156 C 402.355469 184.148438 400.628906 185.875 398.519531 185.875 C 396.410156 185.875 394.6875 184.148438 394.6875 182.035156 C 394.6875 171.46875 385.675781 162.824219 374.558594 162.824219 C 363.441406 162.824219 354.429688 171.46875 354.429688 182.035156 C 354.429688 184.148438 352.707031 185.875 350.597656 185.875 C 348.488281 185.875 346.761719 184.148438 346.761719 182.035156 C 346.761719 167.242188 359.222656 155.140625 374.558594 155.140625 Z M 378.394531 193.5625 C 378.394531 195.675781 376.667969 197.402344 374.558594 197.402344 C 372.449219 197.402344 370.726562 195.675781 370.726562 193.5625 C 370.726562 191.449219 372.449219 189.71875 374.558594 189.71875 C 376.667969 189.71875 378.394531 191.449219 378.394531 193.5625 Z M 336.21875 189.71875 C 338.328125 189.71875 340.054688 191.449219 340.054688 193.5625 C 340.054688 212.578125 355.582031 228.140625 374.558594 228.140625 C 393.535156 228.140625 409.0625 212.578125 409.0625 193.5625 C 409.0625 191.449219 410.789062 189.71875 412.898438 189.71875 C 415.007812 189.71875 416.730469 191.449219 416.730469 193.5625 C 416.730469 216.804688 397.753906 235.824219 374.558594 235.824219 C 351.363281 235.824219 332.386719 216.804688 332.386719 193.5625 C 332.386719 191.449219 334.109375 189.71875 336.21875 189.71875 Z M 336.21875 189.71875"/></g><g clip-path="url(#c)"><path fill="#FF2768" d="M 175.214844 28.871094 C 167.09375 28.871094 160.554688 35.25 160.554688 43.171875 L 160.554688 304.777344 C 160.554688 312.3125 159.488281 318.449219 166.367188 319.03125 L 118.183594 319.03125 C 112.480469 319.03125 115.398438 323.460938 115.398438 328.964844 L 115.398438 335.585938 C 115.398438 341.089844 119.988281 345.519531 125.691406 345.519531 L 624.894531 345.519531 C 630.59375 345.519531 635.1875 341.089844 635.1875 335.585938 L 635.1875 328.964844 C 635.1875 323.460938 638.101562 319.03125 632.398438 319.03125 L 584.214844 319.03125 C 591.097656 318.449219 590.03125 312.3125 590.03125 304.777344 L 590.03125 43.171875 C 590.03125 35.25 583.492188 28.871094 575.371094 28.871094 Z M 301.882812 32.339844 C 303.964844 32.339844 305.65625 33.988281 305.65625 36.019531 C 305.65625 38.054688 303.964844 39.703125 301.882812 39.703125 C 299.796875 39.703125 298.109375 38.054688 298.109375 36.019531 C 298.109375 33.988281 299.796875 32.339844 301.882812 32.339844 Z M 174.859375 43.199219 L 575.726562 43.199219 L 575.726562 304.746094 L 174.859375 304.746094 Z M 310.125 319.078125 L 440.460938 319.078125 C 440.269531 321.847656 438.335938 324.011719 435.964844 324.011719 L 314.625 324.011719 C 312.25 324.011719 310.316406 321.847656 310.125 319.078125 Z M 574.765625 326.914062 C 577.835938 326.914062 580.324219 329.316406 580.324219 332.277344 C 580.324219 335.238281 577.835938 337.640625 574.765625 337.640625 C 571.695312 337.640625 569.207031 335.238281 569.207031 332.277344 C 569.207031 329.316406 571.695312 326.914062 574.765625 326.914062 Z M 592.296875 326.914062 C 595.363281 326.914062 597.851562 329.316406 597.851562 332.277344 C 597.851562 335.238281 595.363281 337.640625 592.296875 337.640625 C 589.226562 337.640625 586.738281 335.238281 586.738281 332.277344 C 586.738281 329.316406 589.226562 326.914062 592.296875 326.914062 Z M 609.824219 326.914062 C 612.894531 326.914062 615.382812 329.316406 615.382812 332.277344 C 615.382812 335.238281 612.894531 337.640625 609.824219 337.640625 C 606.757812 337.640625 604.265625 335.238281 604.265625 332.277344 C 604.265625 329.316406 606.757812 326.914062 609.824219 326.914062 Z M 137.582031 330.464844 L 166.742188 330.464844 C 168.167969 330.464844 169.316406 331.273438 169.316406 332.277344 C 169.316406 333.28125 168.167969 334.085938 166.742188 334.085938 L 137.582031 334.085938 C 136.15625 334.085938 135.007812 333.28125 135.007812 332.277344 C 135.007812 331.273438 136.15625 330.464844 137.582031 330.464844 Z M 137.582031 330.464844"/></g></svg>